<svg xmlns="http://www.w3.org/2000/svg" width="1200" height="630" viewBox="0 0 1200 630" font-family="-apple-system, BlinkMacSystemFont, 'Segoe UI', Roboto, Helvetica, Arial, sans-serif">
  <defs>
    <linearGradient id="bg" x1="0" y1="0" x2="1" y2="1">
      <stop offset="0" stop-color="#0d0f14"/>
      <stop offset="1" stop-color="#090a0d"/>
    </linearGradient>
    <radialGradient id="glow" cx="0.78" cy="0.22" r="0.6">
      <stop offset="0" stop-color="#10b981" stop-opacity="0.20"/>
      <stop offset="1" stop-color="#10b981" stop-opacity="0"/>
    </radialGradient>
  </defs>

  <rect width="1200" height="630" fill="url(#bg)"/>
  <rect width="1200" height="630" fill="url(#glow)"/>

  <!-- subtle grid -->
  <g stroke="#1b1e26" stroke-width="1">
    <line x1="0" y1="157" x2="1200" y2="157"/>
    <line x1="0" y1="315" x2="1200" y2="315"/>
    <line x1="0" y1="472" x2="1200" y2="472"/>
  </g>

  <!-- logo mark -->
  <g transform="translate(96, 150)">
    <rect width="96" height="96" rx="24" fill="#10b981" opacity="0.14"/>
    <path d="M48 16l28 32-28 32-28-32z" fill="#10b981"/>
  </g>

  <text x="212" y="190" fill="#e8eaef" font-size="40" font-weight="600" letter-spacing="-0.5">Market Hub</text>
  <text x="214" y="232" fill="#646b78" font-size="22" font-weight="500">Essential tools for crypto &amp; stock markets</text>

  <text x="96" y="380" fill="#ffffff" font-size="78" font-weight="700" letter-spacing="-2">The best market tools,</text>
  <text x="96" y="468" fill="#10b981" font-size="78" font-weight="700" letter-spacing="-2">curated in one place.</text>

  <!-- category chips -->
  <g transform="translate(96, 520)" font-size="22" font-weight="500">
    <g>
      <rect width="150" height="46" rx="23" fill="#14161c" stroke="#23262e"/>
      <text x="75" y="30" fill="#9aa1ad" text-anchor="middle">Charting</text>
    </g>
    <g transform="translate(166,0)">
      <rect width="206" height="46" rx="23" fill="#14161c" stroke="#23262e"/>
      <text x="103" y="30" fill="#9aa1ad" text-anchor="middle">On-chain data</text>
    </g>
    <g transform="translate(388,0)">
      <rect width="178" height="46" rx="23" fill="#14161c" stroke="#23262e"/>
      <text x="89" y="30" fill="#9aa1ad" text-anchor="middle">Screeners</text>
    </g>
    <g transform="translate(582,0)">
      <rect width="232" height="46" rx="23" fill="#14161c" stroke="#23262e"/>
      <text x="116" y="30" fill="#9aa1ad" text-anchor="middle">News &amp; research</text>
    </g>
    <g transform="translate(830,0)">
      <rect width="150" height="46" rx="23" fill="#14161c" stroke="#23262e"/>
      <text x="75" y="30" fill="#9aa1ad" text-anchor="middle">Macro</text>
    </g>
  </g>
</svg>
